<svg width="50" height="50" viewBox="0 0 50 50" fill="none" xmlns="http://www.w3.org/2000/svg">
<rect x="0.5" y="0.5" width="49" height="49" rx="7.5" fill="#155932" stroke="#EDEDED"/>
<path fill-rule="evenodd" clip-rule="evenodd" d="M21.2819 23.9401C21.001 24.2213 20.8432 24.6026 20.8432 25.0001C20.8432 25.3976 21.001 25.7788 21.2819 26.0601L26.9379 31.7181C27.2193 31.9994 27.6009 32.1573 27.9988 32.1572C28.3966 32.1571 28.7781 31.999 29.0594 31.7176C29.3407 31.4362 29.4986 31.0546 29.4985 30.6567C29.4984 30.2589 29.3403 29.8774 29.0589 29.5961L24.4629 25.0001L29.0589 20.4041C29.3323 20.1213 29.4837 19.7425 29.4804 19.3492C29.4772 18.9559 29.3196 18.5796 29.0416 18.3014C28.7637 18.0231 28.3875 17.8652 27.9942 17.8616C27.6009 17.858 27.2219 18.009 26.9389 18.2821L21.2809 23.9391L21.2819 23.9401Z" fill="white"/>
</svg>
