<svg width="50" height="50" viewBox="0 0 50 50" fill="none" xmlns="http://www.w3.org/2000/svg">
<rect x="0.5" y="0.5" width="49" height="49" rx="7.5" fill="#155932" stroke="#EDEDED"/>
<path fill-rule="evenodd" clip-rule="evenodd" d="M29.0599 23.9401C29.3408 24.2213 29.4986 24.6026 29.4986 25.0001C29.4986 25.3976 29.3408 25.7788 29.0599 26.0601L23.4039 31.7181C23.1225 31.9994 22.7409 32.1573 22.343 32.1572C21.9452 32.1571 21.5637 31.999 21.2824 31.7176C21.0011 31.4362 20.8432 31.0546 20.8433 30.6567C20.8434 30.2589 21.0015 29.8774 21.2829 29.5961L25.8789 25.0001L21.2829 20.4041C21.0095 20.1213 20.8581 19.7425 20.8614 19.3492C20.8646 18.9559 21.0222 18.5796 21.3002 18.3014C21.5781 18.0231 21.9543 17.8652 22.3476 17.8616C22.7409 17.858 23.1199 18.009 23.4029 18.2821L29.0609 23.9391L29.0599 23.9401Z" fill="white"/>
</svg>
