<svg width="20" height="20" viewBox="0 0 30 30" fill="none" xmlns="http://www.w3.org/2000/svg">
<path fill-rule="evenodd" clip-rule="evenodd" d="M22.8988 18.0413C24.4575 16.0317 25.1921 13.5038 24.9532 10.9718C24.7142 8.43987 23.5196 6.09404 21.6125 4.41158C19.7053 2.72911 17.2288 1.83641 14.6868 1.91507C12.1448 1.99373 9.72826 3.03785 7.92877 4.83501C6.12771 6.63342 5.08018 9.05091 4.99964 11.5948C4.9191 14.1388 5.81162 16.6177 7.49531 18.5264C9.17899 20.4351 11.5271 21.6301 14.0612 21.8676C16.5953 22.1052 19.1247 21.3675 21.1338 19.805L21.1875 19.8613L26.49 25.165C26.6062 25.2811 26.744 25.3733 26.8958 25.4361C27.0475 25.499 27.2102 25.5313 27.3744 25.5313C27.5386 25.5313 27.7013 25.499 27.853 25.4361C28.0048 25.3733 28.1426 25.2811 28.2588 25.165C28.3749 25.0489 28.467 24.911 28.5299 24.7593C28.5927 24.6075 28.6251 24.4449 28.6251 24.2806C28.6251 24.1164 28.5927 23.9538 28.5299 23.802C28.467 23.6503 28.3749 23.5124 28.2588 23.3963L22.955 18.0938C22.9368 18.0757 22.918 18.0582 22.8988 18.0413ZM20.3038 6.60376C21.0095 7.29811 21.5708 8.12532 21.9553 9.03768C22.3397 9.95004 22.5397 10.9295 22.5438 11.9195C22.5478 12.9096 22.3558 13.8906 21.9788 14.8061C21.6017 15.7215 21.0472 16.5533 20.3471 17.2534C19.6471 17.9534 18.8153 18.508 17.8998 18.885C16.9844 19.262 16.0033 19.454 15.0133 19.45C14.0232 19.446 13.0438 19.246 12.1314 18.8615C11.2191 18.4771 10.3919 17.9158 9.69752 17.21C8.30992 15.7996 7.53584 13.8981 7.5439 11.9195C7.55195 9.94101 8.34149 8.04581 9.74053 6.64677C11.1396 5.24773 13.0348 4.45819 15.0133 4.45013C16.9918 4.44208 18.8934 5.21616 20.3038 6.60376Z" fill="#155932"/>
</svg>
