<svg width="21" height="16" viewBox="0 0 21 16" fill="none" xmlns="http://www.w3.org/2000/svg">
<g clip-path="url(#clip0_72_103)">
<path d="M20.412 13.5636V2.76362C20.412 1.76762 19.608 0.963623 18.612 0.963623H1.8C0.804 0.963623 0 1.76762 0 2.76362V13.5636C0 14.5596 0.804 15.3636 1.8 15.3636H18.612C19.608 15.3636 20.412 14.5596 20.412 13.5636ZM18.84 2.63162C19.236 3.02762 19.02 3.43562 18.804 3.63962L13.932 8.10362L18.612 12.9756C18.756 13.1436 18.852 13.4076 18.684 13.5876C18.528 13.7796 18.168 13.7676 18.012 13.6476L12.768 9.17162L10.2 11.5116L7.644 9.17162L2.4 13.6476C2.244 13.7676 1.884 13.7796 1.728 13.5876C1.56 13.4076 1.656 13.1436 1.8 12.9756L6.48 8.10362L1.608 3.63962C1.392 3.43562 1.176 3.02762 1.572 2.63162C1.968 2.23562 2.376 2.42762 2.712 2.71562L10.2 8.76362L17.7 2.71562C18.036 2.42762 18.444 2.23562 18.84 2.63162Z" fill="#155932"/>
</g>
<defs>
<clipPath id="clip0_72_103">
<rect width="20.412" height="14.4" fill="white" transform="translate(0 0.963623)"/>
</clipPath>
</defs>
</svg>
