<svg width="17" height="21" viewBox="0 0 17 21" fill="none" xmlns="http://www.w3.org/2000/svg">
<g clip-path="url(#clip0_72_99)">
<path d="M8.35714 0C10.5736 0 12.6993 0.880482 14.2665 2.44775C15.8338 4.01502 16.7143 6.14069 16.7143 8.35714C16.7143 11.8886 14.2329 15.7371 9.33429 19.944C9.0619 20.178 8.71462 20.3065 8.35554 20.3062C7.99646 20.3059 7.6494 20.1768 7.37743 19.9423L7.05343 19.6611C2.37171 15.564 0 11.8097 0 8.35714C0 6.14069 0.880482 4.01502 2.44775 2.44775C4.01502 0.880482 6.14069 0 8.35714 0ZM8.35714 5.14286C7.50466 5.14286 6.68709 5.4815 6.0843 6.0843C5.4815 6.6871 5.14286 7.50466 5.14286 8.35714C5.14286 9.20962 5.4815 10.0272 6.0843 10.63C6.68709 11.2328 7.50466 11.5714 8.35714 11.5714C9.20962 11.5714 10.0272 11.2328 10.63 10.63C11.2328 10.0272 11.5714 9.20962 11.5714 8.35714C11.5714 7.50466 11.2328 6.6871 10.63 6.0843C10.0272 5.4815 9.20962 5.14286 8.35714 5.14286Z" fill="#155932"/>
</g>
<defs>
<clipPath id="clip0_72_99">
<rect width="16.7143" height="20.3062" fill="white"/>
</clipPath>
</defs>
</svg>
